<svg xmlns="http://www.w3.org/2000/svg" width="813.333" height="813.333" preserveAspectRatio="xMidYMid meet" version="1.0" viewBox="0 0 610 610"><metadata>Created by potrace 1.11, written by Peter Selinger 2001-2013</metadata><g fill="#000" stroke="none"><path d="M380 3140 c0 -1622 3 -2950 6 -2950 3 0 36 32 74 70 38 39 71 70 74 70 3 0 7 -71 8 -158 l3 -157 222 220 c122 121 382 379 577 573 l356 353 0 1724 0 1725 870 0 c479 0 870 -2 870 -5 0 -3 -301 -306 -670 -675 l-670 -670 41 -41 40 -41 -36 -32 c-19 -18 -35 -38 -35 -45 0 -7 34 -46 75 -86 41 -40 76 -79 77 -86 2 -7 398 -407 880 -890 l877 -878 113 -1 c93 -1 1017 -2 1068 -1 8 0 124 0 258 1 133 0 242 4 242 7 0 4 -34 39 -75 79 -41 40 -75 75 -75 78 0 3 36 6 80 6 44 0 80 2 80 5 0 3 -376 382 -835 841 l-835 834 565 565 565 565 0 805 0 805 -80 0 -80 0 0 170 0 170 -2315 0 -2315 0 0 -2950z" transform="translate(0.000000,610.000000) scale(0.100000,-0.100000)"/></g></svg>